<?xml version="1.0" encoding="utf-8"?>
<!-- Generator: Adobe Illustrator 18.0.0, SVG Export Plug-In . SVG Version: 6.00 Build 0)  -->
<!DOCTYPE svg PUBLIC "-//W3C//DTD SVG 1.1//EN" "http://www.w3.org/Graphics/SVG/1.1/DTD/svg11.dtd">
<svg version="1.1" id="Layer_1" xmlns="http://www.w3.org/2000/svg" xmlns:xlink="http://www.w3.org/1999/xlink" x="0px" y="0px"
	 viewBox="0 0 617.9 619.5" enable-background="new 0 0 617.9 619.5" xml:space="preserve">
<rect x="-191.6" y="-207.1" display="none" fill="#333333" width="1000" height="1000"/>
<g>
	<rect x="-1.6" y="-1" display="none" fill="#FFFFFF" width="620" height="620.1"/>
	<g>
		<path fill="#F15A29" d="M52.6,332.9H7.8c-4.3,0-7.8-3.5-7.8-7.8v-39.5c0-4.3,3.5-7.8,7.8-7.8h44.8c4.3,0,7.8,3.5,7.8,7.8v39.5
			C60.3,329.4,56.8,332.9,52.6,332.9z"/>
		<path fill="#F15A29" d="M143.8,236.9h-39.5c-4.3,0-7.8-3.5-7.8-7.8v-39.5c0-4.3,3.5-7.8,7.8-7.8h39.5c4.3,0,7.8,3.5,7.8,7.8v39.5
			C151.5,233.5,148,236.9,143.8,236.9z"/>
		<path fill="#F15A29" d="M422.5,514.9H383c-4.3,0-7.8-3.5-7.8-7.8v-39.5c0-4.3,3.5-7.8,7.8-7.8h39.5c4.3,0,7.8,3.5,7.8,7.8v39.5
			C430.2,511.4,426.8,514.9,422.5,514.9z"/>
		<path fill="#F15A29" d="M333.4,284.3v39.5c0,4.3-3.5,7.8-7.8,7.8H192.7c-4.3,0-7.8-3.5-7.8-7.8v-39.5c0-4.3,3.5-7.8,7.8-7.8h132.9
			C329.9,276.5,333.4,280,333.4,284.3z"/>
		<path fill="#F15A29" d="M521.4,191.7v39.5c0,4.3-3.5,7.8-7.8,7.8H291.6c-4.3,0-7.8-3.5-7.8-7.8v-39.5c0-4.3,3.5-7.8,7.8-7.8h222.1
			C517.9,183.9,521.4,187.4,521.4,191.7z"/>
		<path fill="#F15A29" d="M617.9,285.7v39.5c0,4.3-3.5,7.8-7.8,7.8H472.9c-4.3,0-7.8-3.5-7.8-7.8v-39.5c0-4.3,3.5-7.8,7.8-7.8h137.3
			C614.4,277.9,617.9,281.4,617.9,285.7z"/>
	</g>
	<g>
		<path fill="#00A79D" d="M421.7,145.1h-39.5c-4.3,0-7.8-3.5-7.8-7.8V97.9c0-4.3,3.5-7.8,7.8-7.8h39.5c4.3,0,7.8,3.5,7.8,7.8v39.5
			C429.4,141.7,425.9,145.1,421.7,145.1z"/>
		<path fill="#00A79D" d="M328.2,619.5h-39.5c-4.3,0-7.8-3.5-7.8-7.8v-235c0-4.3,3.5-7.8,7.8-7.8h39.5c4.3,0,7.8,3.5,7.8,7.8v235
			C335.9,616,332.4,619.5,328.2,619.5z"/>
		<path fill="#00A79D" d="M235.2,515.5h-39.5c-4.3,0-7.8-3.5-7.8-7.8V374.8c0-4.3,3.5-7.8,7.8-7.8h39.5c4.3,0,7.8,3.5,7.8,7.8v132.9
			C243,512,239.5,515.5,235.2,515.5z"/>
		<path fill="#00A79D" d="M421.7,424.6h-39.5c-4.3,0-7.8-3.5-7.8-7.8V283.9c0-4.3,3.5-7.8,7.8-7.8h39.5c4.3,0,7.8,3.5,7.8,7.8v132.9
			C429.4,421.1,425.9,424.6,421.7,424.6z"/>
		<path fill="#00A79D" d="M235.2,237.7h-39.5c-4.3,0-7.8-3.5-7.8-7.8V97c0-4.3,3.5-7.8,7.8-7.8h39.5c4.3,0,7.8,3.5,7.8,7.8v132.9
			C243,234.2,239.5,237.7,235.2,237.7z"/>
		<path fill="#00A79D" d="M328.2,148.4h-39.5c-4.3,0-7.8-3.5-7.8-7.8V7.8c0-4.3,3.5-7.8,7.8-7.8h39.5c4.3,0,7.8,3.5,7.8,7.8v132.9
			C335.9,144.9,332.4,148.4,328.2,148.4z"/>
		<path fill="#00A79D" d="M143.8,426.4h-39.5c-4.3,0-7.8-3.5-7.8-7.8V285.7c0-4.3,3.5-7.8,7.8-7.8h39.5c4.3,0,7.8,3.5,7.8,7.8v132.9
			C151.5,422.9,148,426.4,143.8,426.4z"/>
		<path fill="#00A79D" d="M517.3,422h-39.5c-4.3,0-7.8-3.5-7.8-7.8v-39.5c0-4.3,3.5-7.8,7.8-7.8h39.5c4.3,0,7.8,3.5,7.8,7.8v39.5
			C525.1,418.5,521.6,422,517.3,422z"/>
	</g>
</g>
</svg>
